<svg xmlns="http://www.w3.org/2000/svg" viewBox="0 0 100 32" width="100" height="32" fill="white">
  <path d="M33.9 1.1h-5.4c-1.1 0-2 .1-2.4 1.3L19.4 19.4H12l-1.8-9c-.3-1.4-1.3-2.6-3.7-3.4 1.6.4 2.8 1.1 3.9 2.5l3.2 12 7.7-19.1h6.3l9.4 19.1h-5.7L33.9 1.1zm22.4 0H52c-1.7 0-3.3.4-3.3 3.6 0 2.9 4.3 3.3 4.8 4 .5.4.5 1.1 0 1.5-.7.6-2 .7-3.2.5-1.4-.2-2.5-.7-3.5-1.3l-.7 3.3c.9.4 2.6.8 4.6.8 4.4 0 7.4-2.1 7.5-5.4.1-4.1-5.7-4.4-5.6-6.2 0-.4.5-1 1.9-1.1 1.2-.1 2.1.2 2.8.5l.6-2.9c-.3-.1-.9-.3-1.6-.3zm17.6 0h-4l-6.4 16h-.2l-2.6-13.8c-.2-.9.2-1.9 1.2-2.1h4.4v-.1H60.4v.1h2.5c1 .2 1.5.8 1.7 1.8l5.8 20.9h6.3L73.9 1.1z"/>
  <path d="M12.6 1.1H.1L.1 24h58.4c.6-1.5 1.5-3.3 2.7-5.1H3.6c7.7-2.1 13-5.2 14.8-17.8H12.6z" opacity="0"/>
  <path d="M78.6 1.1h-3.9c-1.3 0-2.4.4-2.9 1.8l-9.1 21h5.8l1.3-3.6h7.1l.7 3.6h5.1L78.6 1.1zm-3.4 5.3l3.2 8.7h-4.3l1.1-8.7z"/>
</svg>